<svg xmlns="http://www.w3.org/2000/svg" viewBox="0 0 623.8 468.41"><defs><style>.cls-1{fill:#fff;}</style></defs><g id="Camada_2" data-name="Camada 2"><g id="Camada_1-2" data-name="Camada 1"><path class="cls-1" d="M442.82,273.76c2.95-.76,5.84-1.5,8.65-2.24q2.28-4.47,4.26-9.09a14.05,14.05,0,0,1-6.12-2.45A142,142,0,0,1,442.82,273.76Z"/><path class="cls-1" d="M168.09,239.91a7.85,7.85,0,0,0,2.14-.92,8.66,8.66,0,0,0,1.29-.91l.09-.09a5.21,5.21,0,0,0,1.4-1.71c.17-.36.36-.74.55-1.16-.82-3.56-1.5-7.18-2.05-10.83-.39.85-.77,1.7-1.16,2.56q-1.8,4-3.6,8,.56,2.58,1.2,5.11Z"/><path class="cls-1" d="M461.94,199.14v0l.55-1.12c.44-1,.78-1.74,1-2.23,3.15-7.73,3-11.93,1.73-13.28a3.34,3.34,0,0,0-1.51-.95,7.45,7.45,0,0,0-2.38-.32c-.37,0-.74,0-1.13,0l-.4,0a145.87,145.87,0,0,1,1.55,18.94C461.55,199.88,461.75,199.52,461.94,199.14Z"/><path class="cls-1" d="M195.53,287.22l.1-2c-.14-.21-.29-.41-.42-.62a44.28,44.28,0,0,1-4.31,4.16c-.17.15-.35.29-.53.43,1.52,2.19,3.1,4.35,4.73,6.45l.29-5.56Z"/><path class="cls-1" d="M209.87,302.79q-3-3.21-5.88-6.6c-.72.08-1.44.15-2.17.2l-5.81.43c1.71,2.18,3.49,4.31,5.32,6.39Z"/><path class="cls-1" d="M397,323.51a145.6,145.6,0,0,1-135.15,14.58q-7.65.35-14.75.56A152,152,0,0,0,411.5,320.93Q404.15,322.29,397,323.51Z"/><path class="cls-1" d="M170.94,162.42h0a19.17,19.17,0,0,1,6.91-7.34c19.75-57.07,74-98.17,137.75-98.17,67.17,0,123.87,45.67,140.66,107.59l.67-.1,2.48-.3c1.24-.13,2.39-.22,3.48-.26C445.74,98.6,386.22,50.34,315.64,50.34c-73,0-134.2,51.64-148.93,120.33l1.4-2.74Z"/><path class="cls-1" d="M223.53,41.08a10.31,10.31,0,0,0,5.1,1.12,43.11,43.11,0,0,0,6.51-.89,43,43,0,0,1,4.92-.77,7.66,7.66,0,0,1,3.43.46,4.51,4.51,0,0,1,2.45,2.38,5.25,5.25,0,0,1,.15,4.54,7.7,7.7,0,0,1-4,3.72,7.05,7.05,0,0,1-5.2.73,6.28,6.28,0,0,1-3.64-2.88l-6.18,3A9.92,9.92,0,0,0,231.33,57a11.6,11.6,0,0,0,6.19,1.35,17.7,17.7,0,0,0,7-1.88,15.25,15.25,0,0,0,5.8-4.63A11.53,11.53,0,0,0,252.65,46a10.77,10.77,0,0,0-1-5.78,9.51,9.51,0,0,0-4.16-4.58,10.44,10.44,0,0,0-5.2-1.14,50,50,0,0,0-6.64.86,42.74,42.74,0,0,1-4.8.72,7.75,7.75,0,0,1-3.31-.42,4.1,4.1,0,0,1-2.29-2.18,4.92,4.92,0,0,1-.22-4.42,7,7,0,0,1,3.44-3.25,7.49,7.49,0,0,1,5.08-.78,5.13,5.13,0,0,1,3.43,2.4l6.39-3.12a10.5,10.5,0,0,0-7.06-5.25,14.7,14.7,0,0,0-9.64,1.54,17.32,17.32,0,0,0-5.74,4.31,10.94,10.94,0,0,0-2.55,5.58,10.46,10.46,0,0,0,1.09,6.07A9.33,9.33,0,0,0,223.53,41.08Z"/><polygon class="cls-1" points="261.53 13.3 270.32 46.1 276.53 44.44 267.74 11.63 277.82 8.93 276.46 3.86 250.04 10.95 251.39 16.02 261.53 13.3"/><path class="cls-1" d="M292.81,34.54a12.67,12.67,0,0,0,5.77,4.65A19,19,0,0,0,314,38.33a13,13,0,0,0,5.3-5.26,15,15,0,0,0,1.63-8.23L319.54,0l-6.42.36,1.38,25c.17,3-.49,5.24-2,6.83a9.1,9.1,0,0,1-6.44,2.62,9,9,0,0,1-6.62-1.89c-1.65-1.42-2.55-3.61-2.72-6.57l-1.39-25L289,1.7l1.37,24.84A15.4,15.4,0,0,0,292.81,34.54Z"/><path class="cls-1" d="M351.91,41.21a16.94,16.94,0,0,0,8.32-5.4A20.28,20.28,0,0,0,364.52,26a20.77,20.77,0,0,0-.74-10.75,17.23,17.23,0,0,0-6-8A23.85,23.85,0,0,0,347.37,3L334.76.84l-6.68,38.63,12.62,2.18A24.28,24.28,0,0,0,351.91,41.21ZM340.2,7.1l6.28,1.09q6.78,1.17,9.74,5.57T358,24.9q-1.15,6.66-5.4,9.71t-11,1.87l-6.28-1.08Z"/><rect class="cls-1" x="355.6" y="26.88" width="39.2" height="6.43" transform="translate(224.77 375.13) rotate(-71.03)"/><path class="cls-1" d="M386.49,53.16a21.19,21.19,0,0,0,17.68,9.76A18.85,18.85,0,0,0,414,60.15a20.47,20.47,0,0,0,7.32-7.79A20.16,20.16,0,0,0,424,42a19,19,0,0,0-2.89-9.75,20.66,20.66,0,0,0-7.63-7.14,20.3,20.3,0,0,0-10.06-2.61,19.09,19.09,0,0,0-9.81,2.73A20,20,0,0,0,386.23,33a20.08,20.08,0,0,0-2.65,10.35A19,19,0,0,0,386.49,53.16Zm5.52-17a16.18,16.18,0,0,1,5.18-5.83,12.07,12.07,0,0,1,6.61-2.09A14.58,14.58,0,0,1,415.94,35a12.1,12.1,0,0,1,1.75,6.69,16.16,16.16,0,0,1-2.17,7.51,16.39,16.39,0,0,1-5.2,5.86,12.36,12.36,0,0,1-6.63,2.14,13.6,13.6,0,0,1-6.93-1.8,13.43,13.43,0,0,1-5.21-4.91,12.33,12.33,0,0,1-1.73-6.75A16.35,16.35,0,0,1,392,36.2Z"/><path class="cls-1" d="M280.82,109.44a99.84,99.84,0,0,0-64.59,86.76,9.87,9.87,0,0,1,1.22-.07,10.34,10.34,0,0,1,1.93.18,96.49,96.49,0,0,1,61.82-83.68A22.47,22.47,0,0,1,280.82,109.44Z"/><path class="cls-1" d="M229.78,253.23c.56-1.09,1.11-2.21,1.64-3.36-.63-1.11-1.24-2.24-1.81-3.39-.27,1.62-.58,3.25-.92,4.87C229,252,229.4,252.61,229.78,253.23Z"/><path class="cls-1" d="M288.26,298.56c3.55-.24,7.09-.49,10.64-.75a96.36,96.36,0,0,1-54-29.42l-1,1.39c-.28.4-.55.79-.84,1.18a99.7,99.7,0,0,0,45.16,27.6Z"/><path class="cls-1" d="M407,171.7a14.3,14.3,0,0,1,3.48.57A100.1,100.1,0,0,0,349,108.89a21.73,21.73,0,0,1-.31,3.2A96.7,96.7,0,0,1,407,171.7Z"/><path class="cls-1" d="M401.53,253.21c-.32-.67-.62-1.38-.89-2.11-.2-.56-.39-1.11-.55-1.65a96.72,96.72,0,0,1-50,43.46q5.49-.68,10.81-1.42A100.46,100.46,0,0,0,401.53,253.21Z"/><path class="cls-1" d="M196.23,171.89a11.64,11.64,0,0,1,8.93-4.28h.26L199,165.53C198,167.74,197.13,169.84,196.23,171.89Z"/><path class="cls-1" d="M421.08,181.88a63.17,63.17,0,0,1,7.81-6.88,52.78,52.78,0,0,1,17.45-8.41l.16-.05a135.81,135.81,0,0,0-117.81-99c5.21,1.93,10.2,4.83,13.24,9.18,5.74,8.24,7.84,18.16,8.32,24.57a107.52,107.52,0,0,1,70.15,79v0A13.35,13.35,0,0,1,421.08,181.88Zm-59.33-81-1.35-.6L366.34,87l1.35.6Zm20.14,11.81-1.19-.87L389.29,100l1.19.86Zm17.25,15.74-1-1.1L409,117.59l1,1.1ZM436,164.33l-13.9,4.51-.46-1.4,13.91-4.51Zm-23.26-16.88-.74-1.28,12.66-7.31.74,1.28Z"/><path class="cls-1" d="M367.49,328.15c-27.73,4-53,6.53-75.64,8.17a136.52,136.52,0,0,0,75.64-8.17Z"/><path class="cls-1" d="M180.56,215.93c.08,1,.19,1.92.3,2.88.49-1.2.84-2.16,1.07-2.91Z"/><path class="cls-1" d="M190.15,188.73a23.23,23.23,0,0,1,.23-4c-1.41,3-2.93,6.12-4.64,9.59-.73,1.48-1.51,3-2.33,4.67l-.2.41s0,.07-.05.1l1.24,0c3.1-.09,4.6-.16,7.65-.33.74,0,1.45-.06,2.12-.06H195a10.65,10.65,0,0,1-4.49-6.89,13.25,13.25,0,0,1-.29-1.95l-.31,0,.16-1.47Z"/><path class="cls-1" d="M209.8,168.59a9,9,0,0,1,3.48,2.55,107.58,107.58,0,0,1,66.1-69.26c.38-6.38,2.42-16.66,8.32-25.14,2.92-4.2,7.68-7,12.71-9a135.84,135.84,0,0,0-110.2,83,59.18,59.18,0,0,1,5.88-.71l9.74-.69-3.79,9c-.86,2.06-1.68,4-2.47,5.85l10.07,3.27-.31,1ZM264.94,87l5.94,13.35-1.34.6-6-13.35ZM242,100l8.6,11.82-1.2.87L240.8,100.9Zm-19.72,17.55,10.86,9.78-1,1.1-10.86-9.78Zm-16.39,22.55.74-1.28,12.66,7.31-.74,1.28Z"/><path class="cls-1" d="M209.55,237a5.15,5.15,0,0,0,.34-1.07,36.78,36.78,0,0,0,.22-8.52l0-.44c-.09-1.66-.2-3.16-.34-4.51l-2.3-3.13c-2.94,7.56-5.71,14.41-8.13,20.31l4.57-1.49,1.55-3.31.2,2.74,3.55-1.15.26.81,0-.09Z"/><path class="cls-1" d="M198.57,241.47c-1.75,4.25-3.3,7.95-4.59,11l-2.34,5.47c.44,1,.9,2,1.36,3,.93-1.65,1.82-3.4,2.68-5.22L203,240Z"/><path class="cls-1" d="M202,275.8l.24-.85c-.24.41-.48.82-.74,1.22.09.15.19.29.27.43C201.86,276.34,201.94,276.08,202,275.8Z"/><path class="cls-1" d="M270.35,299.69a107.05,107.05,0,0,1-31.86-22.84c-7.11,8.28-14.82,13.83-23.51,16.86q4,4.4,8.32,8.44l19.86-1,6.23-8.58,1.2.86-5.54,7.63C253.36,300.65,261.82,300.19,270.35,299.69Z"/><path class="cls-1" d="M208.63,198.47a11.09,11.09,0,0,1-5.61,2.38,11.42,11.42,0,0,1,2.58,1.79,15.9,15.9,0,0,1,3-3C208.59,199.22,208.61,198.84,208.63,198.47Z"/><path class="cls-1" d="M206,243l1.52-2.08a2.68,2.68,0,0,0-1-.22l-.28,0a3.81,3.81,0,0,0,.69-.35,6.72,6.72,0,0,0,2.12-2.29l-3.3,1.07Z"/><path class="cls-1" d="M405.87,282.91q12.15-2.9,23.2-5.67A132.5,132.5,0,0,0,438,261.43a51.21,51.21,0,0,1-12.25,3l-1.36.14,1,.57-.74,1.27-3-1.72h-.35a23.91,23.91,0,0,1-11.3-2.57,19.11,19.11,0,0,1-3.72-2.58,107.89,107.89,0,0,1-26.8,29c6.6-1.17,12.9-2.45,18.81-3.85l5.8-1.38-6-5.39,1-1.09Z"/><path class="cls-1" d="M206.88,254.83l0,.59c0-.18.07-.35.11-.53Z"/><path class="cls-1" d="M443.64,189.7c-1.1,1.07-2.19,2.24-3.25,3.47-.43.5-.82,1-1.2,1.45A83.28,83.28,0,0,0,429,211.37c-.39.8-.73,1.58-1.06,2.35l13.4,1.41-.15,1.47-13.87-1.46a77.49,77.49,0,0,0-5.73,20,33.34,33.34,0,0,0-.31,6.39c.14,2.43.66,4.16,1.47,4.92a3.63,3.63,0,0,0,1.82.34,12.39,12.39,0,0,0,1.3-.08c2.65-.3,5.67-1.82,9-4.54l-13.24-4.29.46-1.41L436,241l-.1.32c.44-.38.89-.78,1.34-1.21a62,62,0,0,0,4.63-4.84,81.1,81.1,0,0,0,7.78-10.85q.68-4.18,1.08-8.44c.12-1.17.22-2.35.3-3.53q.35-4.84.35-9.78a136.31,136.31,0,0,0-1.2-18.07A33.31,33.31,0,0,0,443.64,189.7Z"/><path class="cls-1" d="M297.1,125.38a7.46,7.46,0,0,1-1-.63,1.2,1.2,0,0,0-1.05-.13,2.89,2.89,0,0,0,1.54,1.1Z"/><path class="cls-1" d="M297.38,136.48c.06.17.1.33.13.45a13.15,13.15,0,0,0,2.68,1.4A5.62,5.62,0,0,0,297.38,136.48Z"/><path class="cls-1" d="M320.29,145.17c-.9-.15-1,2.87-1,3.8l.07-.05.34.12a2.47,2.47,0,0,0,2.39-.22,8.44,8.44,0,0,1,.05-1.43A2.35,2.35,0,0,0,320.29,145.17Z"/><path class="cls-1" d="M300.4,143.22c0,.19,0,.4-.08.61a3.45,3.45,0,0,0,.14,2.33,1.31,1.31,0,0,0,.79.46c.17-.78.55-2.75.09-3.14A1,1,0,0,0,300.4,143.22Z"/><path class="cls-1" d="M311,113.61a28.85,28.85,0,0,0-1.81,4,31.68,31.68,0,0,1-.32,3.37c-.34,1.3.16,1.27.16,1.27l.16.18a5.69,5.69,0,0,0,1.69-4.21,5.34,5.34,0,0,1-1.36,4.59,10,10,0,0,1,1.68,2.85l.24-.61c.24-1.79.39-5.44.47-5.85s-.23-1.86,0-2a9.38,9.38,0,0,0,.52-3.13,13,13,0,0,1,0-1.78A6.66,6.66,0,0,0,311,113.61Z"/><path class="cls-1" d="M317.81,117.13c.21.18-.11,1.55,0,2s.23,4,.48,5.85l.24.61a10.13,10.13,0,0,1,1.67-2.85,5.38,5.38,0,0,1-1.36-4.6,5.65,5.65,0,0,0,1.69,4.22l.17-.18s.49,0,.15-1.27a29.11,29.11,0,0,1-.32-3.38,28.38,28.38,0,0,0-1.82-3.95,6.87,6.87,0,0,0-1.4-1.4,13,13,0,0,1,0,1.78A9.38,9.38,0,0,0,317.81,117.13Z"/><path class="cls-1" d="M298.09,124.69l-1,.12.25.38Z"/><path class="cls-1" d="M322.53,145.74c-.31.4.08,1.8.38,2.72l.14.06a1.21,1.21,0,0,0,.83.12.64.64,0,0,0,.29-.29l.09-.24c-.13-1-.41-2.91-.49-3.24S323,145.14,322.53,145.74Z"/><path class="cls-1" d="M310,149l.33-.12.08,0c0-.93-.08-3.94-1-3.79a2.35,2.35,0,0,0-1.88,2.21,8.51,8.51,0,0,1,.06,1.43A2.44,2.44,0,0,0,310,149Z"/><path class="cls-1" d="M311.67,144.86c-.55.38-1.07,3.26-1.22,4.12l.18.13a3.75,3.75,0,0,0,3,.52c1.25-.56.83-2.29.83-2.29a4.24,4.24,0,0,0-.65-1.35C313.16,145.28,312.33,144.41,311.67,144.86Z"/><path class="cls-1" d="M318.06,144.88c-.66-.45-1.49.43-2.16,1.14a4.07,4.07,0,0,0-.65,1.34,3.22,3.22,0,0,0-.06.63,1.69,1.69,0,0,0,.9,1.66,3.75,3.75,0,0,0,3-.53l.17-.12C319.14,148.13,318.61,145.26,318.06,144.88Z"/><polygon class="cls-1" points="303.89 148.03 304.02 148.03 303.89 148.01 303.89 148.03"/><path class="cls-1" d="M306,144.86c-.08.33-.35,2.26-.48,3.24l.08.24a.63.63,0,0,0,.3.29,1.27,1.27,0,0,0,.83-.12l.13-.07c.3-.91.69-2.32.38-2.71C306.73,145.13,306.06,144.42,306,144.86Z"/><path class="cls-1" d="M302.13,147.13v.15c.05.21.42.29.94.2l.24,0c.28-.92.82-2.89.23-3.23C302.76,143.79,302.46,145.42,302.13,147.13Z"/><path class="cls-1" d="M304.9,147.89c.15-.94.5-3.27.17-3.35-.71-.17-1,1.66-1.07,2.79h.08l-.08.31a3.9,3.9,0,0,0,0,.4,3.64,3.64,0,0,0,.77-.11Z"/><path class="cls-1" d="M312.28,118.93l-.38,4.68c.53-1.72,1.6-5.31,1.6-5.31l.29,1.33.17-1.06.63-.44V118h0v0l0-.21h0l.05-4.43.24,3.23.24-3.26.05,4.43h.05l.05.26v.08h-.13v0l.63.45.17,1,.29-1.32s1.07,3.59,1.6,5.31l-.38-4.68.09-1.72s-1-3.38-.5-5.24a4.82,4.82,0,0,0-2.29-1,5.66,5.66,0,0,0-2,1c.52,1.86-.49,5.24-.49,5.24Z"/><path class="cls-1" d="M326.2,144.23c-.59.33-.05,2.31.24,3.22l.23,0c.52.09.89,0,.94-.21v-.14C327.27,145.43,327,143.8,326.2,144.23Z"/><polygon class="cls-1" points="325.85 148.02 325.71 148.04 325.86 148.04 325.85 148.02"/><path class="cls-1" d="M329.32,143.22a1,1,0,0,0-.94.26c-.45.39-.07,2.36.1,3.15a1.41,1.41,0,0,0,.79-.46,3.48,3.48,0,0,0,.14-2.34C329.37,143.62,329.35,143.41,329.32,143.22Z"/><path class="cls-1" d="M324.66,144.55c-.33.07,0,2.41.17,3.35l.12,0a4.38,4.38,0,0,0,.76.11,2.17,2.17,0,0,0,0-.4l-.09-.32.08,0C325.69,146.21,325.37,144.38,324.66,144.55Z"/><path class="cls-1" d="M312.07,69.69c-5.16.93-15.93,3.55-20.32,9.87-.26.37-.51.75-.75,1.13s-.48.78-.71,1.17l-.46.8c-.17.32-.34.63-.5,1s-.36.7-.52,1c-.08.16-.16.32-.23.48-.16.36-.32.71-.47,1.06a46.74,46.74,0,0,0-1.93,5.44q-.19.66-.36,1.32T285.55,94a1.74,1.74,0,0,0-.05.22c-.1.43-.19.86-.28,1.27-.35,1.67-.59,3.25-.74,4.66a34.94,34.94,0,0,0-.23,3.52h0V104a1.93,1.93,0,0,0,0,.24c0,.16,0,.31,0,.45a17.86,17.86,0,0,0,.23,2.41,29,29,0,0,0,.83,3.68c.85.93,1.51-1.5,1.28-2.64a4.73,4.73,0,0,1,0-1.71l.43-.13a5.69,5.69,0,0,0,.49,1.83c.42-.19.88-1.38,1.18-2.31l.28-.08a8.88,8.88,0,0,1-.65,2.75,9.42,9.42,0,0,0-.83,5.23,4.3,4.3,0,0,0,.25,1l1-1.33,0-.07s0,0,0,.05a23.87,23.87,0,0,1-1.53,5.75,9.33,9.33,0,0,1-.32,1.78,8.37,8.37,0,0,1-1.33,2.79,6.4,6.4,0,0,1-.71.85,2.44,2.44,0,0,0-.66,1.23,4.54,4.54,0,0,0,1.18,3.6c.55.62,1.1,1.2,1.63,1.73a29.74,29.74,0,0,0,3.3,2.94c.19-.22.43-.5.71-.79a22.25,22.25,0,0,1-4.75-4.45,7.34,7.34,0,0,1-.77-1.13l-.07-.14c-.44-1,.29-2.5.91-3.5a10.16,10.16,0,0,1,.72-1c0,.09-.17.57-.38,1.18s-.36,1.06-.57,1.59c-.57,1.48.91,2.81,1.36,3.19s-.28-1.33-.34-1.5l3.44,3.8-1.77-1.05c-1-.43,1.34,1.69,1.85,2a1.22,1.22,0,0,0,.63.13,4.54,4.54,0,0,0,.81-.09,7.54,7.54,0,0,0,.72-1.15c.22-.42.45-.88.65-1.35l.38-.85c.35-.82.61-1.48.67-1.56a15.54,15.54,0,0,1,1.39-1,4.05,4.05,0,0,1-2.49-1.79c-.29-.39-.31.56-.31.56a15.76,15.76,0,0,1-.73-1.67c-.27-.69-.55-1.51-.83-2.47a2.33,2.33,0,0,1-.07-.25c-.11-.37-.21-.75-.31-1.15-.19-.74-.37-1.55-.53-2.41a9.57,9.57,0,0,1,.13-4.32h0a6.93,6.93,0,0,1,1-2.2h0s.87-1.75,8.43-1c0,0-5.3.16-6.91,1.33a9.29,9.29,0,0,0,1.06,0c1.1,0,4.31-.4,4.31-.4l-.78.55-.72.52s6.92.13,8.93.69l.22.07a3.53,3.53,0,0,1,1.52,1.65,14.94,14.94,0,0,1,1,2.22c0,.11.08.22.11.32l.06.17.06.2c0-.1.05-.2.08-.3a0,0,0,0,1,0,0,3.37,3.37,0,0,1,.1-.34.09.09,0,0,0,0,0,13,13,0,0,0-1.26-3.81c-.26-.55-.51-1-.7-1.4a0,0,0,0,1,0,0c-.07-.13-.13-.25-.19-.35s-.19-.34-.21-.38a3.2,3.2,0,0,1,.27.25l0,0a13.23,13.23,0,0,1,2.48,4.65c.11-.28.22-.53.32-.74a16.08,16.08,0,0,1,1.94-2.73c.13-.16-.48-1.32-.57-1.48l1,1.27,0,0,2-.92.5-.23v0l.49.23,2,.91,0,0,1-1.26c-.09.16-.69,1.32-.56,1.48a15.67,15.67,0,0,1,1.94,2.73c.1.21.21.47.32.74a15.59,15.59,0,0,1,.73-1.91,9.44,9.44,0,0,1,1.75-2.75l0,0a3.2,3.2,0,0,1,.27-.25s-.1.17-.21.38-.11.2-.18.32a0,0,0,0,0,0,0,17.79,17.79,0,0,0-1.95,5.13,1,1,0,0,0,0,.16,2.17,2.17,0,0,1,.07.24l0,.1.09.33.06-.19.11-.33c0-.09.06-.18.1-.28a16.53,16.53,0,0,1,.92-2.09,3.57,3.57,0,0,1,1.54-1.67l.23-.07c2-.56,8.92-.7,8.92-.7l-1.28-.91-.23-.16s3.21.38,4.31.39a9.29,9.29,0,0,0,1.06,0c-1.6-1.17-6.9-1.32-6.9-1.32,7.55-.77,8.42,1,8.42,1h0a6.58,6.58,0,0,1,.88,1.74A9.21,9.21,0,0,1,339,117c-.13.7-.27,1.37-.42,2s-.26,1.06-.4,1.55h0a27,27,0,0,1-.89,2.71,16.4,16.4,0,0,1-.73,1.69s0-1-.31-.56a4.05,4.05,0,0,1-2.49,1.79,15.58,15.58,0,0,1,1.4,1.05c.06.07.31.73.67,1.56l.37.85c.17.35.33.71.51,1.05a7.32,7.32,0,0,0,.87,1.44,2.36,2.36,0,0,0,1.44,0l.12-.08c.68-.5,2.67-2.33,1.73-1.93l-1.36.81-.42.25.53-.58h0l2.91-3.22c-.07.17-.77,1.85-.34,1.5s1.92-1.71,1.35-3.19c-.21-.54-.41-1.11-.57-1.6s-.37-1.08-.39-1.17a10.16,10.16,0,0,1,.72,1c.63,1,1.36,2.49.92,3.5a3.94,3.94,0,0,1-.32.56l-.15.23a22.92,22.92,0,0,1-5,4.84h0l-.14.1.08.09a8.84,8.84,0,0,1,.63.69,28.75,28.75,0,0,0,3.29-2.94c.53-.53,1.08-1.12,1.63-1.74a4.53,4.53,0,0,0,1.19-3.53,2.46,2.46,0,0,0-.68-1.29,6.4,6.4,0,0,1-.71-.85,8.52,8.52,0,0,1-1.47-3.36,11.74,11.74,0,0,1-.18-1.21,24.1,24.1,0,0,1-1.55-5.8l1,1.4a5,5,0,0,0,.3-1.42,9.84,9.84,0,0,0-.88-4.78,9.25,9.25,0,0,1-.69-3.17l.17,0c.28.95.82,2.55,1.32,2.78a6,6,0,0,0,.53-2.28l.3.09a5.9,5.9,0,0,1,.14,2.19c-.24,1.14.43,3.57,1.28,2.64a30.85,30.85,0,0,0,.89-4.15,18.1,18.1,0,0,0,.15-1.94c0-.42,0-.9,0-1.42,0-1-.12-2.2-.28-3.52-.13-1.1-.32-2.3-.57-3.57-.06-.34-.13-.68-.21-1s-.15-.71-.24-1.07c0-.09,0-.18-.07-.28s0-.06,0-.09c-.07-.28-.14-.56-.22-.85,0,0,0-.05,0-.07-.1-.4-.21-.81-.34-1.22-.05-.18-.1-.36-.16-.54s-.18-.59-.28-.89-.21-.62-.32-.94l-.06-.17c-.12-.34-.25-.69-.38-1s-.19-.5-.29-.75a1,1,0,0,0-.09-.22c-.13-.32-.26-.65-.41-1s-.39-.88-.6-1.32l0-.09c-.2-.4-.4-.8-.61-1.2,0,0,0,0,0,0-.22-.42-.45-.85-.69-1.26s-.34-.59-.52-.88-.21-.34-.32-.51c-.24-.38-.49-.76-.75-1.13-4.41-6.31-15.1-8.93-20.22-9.86A15.67,15.67,0,0,0,312.07,69.69Zm5.75,32.52a5.56,5.56,0,0,0-1.48,2.06,13.34,13.34,0,0,1,.92-2.13h.57a.06.06,0,0,1,.06,0A.13.13,0,0,0,317.82,102.21Zm-.89-.08a5.69,5.69,0,0,0-.85.81c.07-.13.23-.44.47-.81Zm-3.34.8a6.06,6.06,0,0,0-.8-.77h.35A6.22,6.22,0,0,1,313.59,102.93Zm-.27,1.32a5.5,5.5,0,0,0-1.47-2,4.7,4.7,0,0,1,.53,0h.05l0,.07A12.65,12.65,0,0,1,313.32,104.25Zm-23.86,20.4h0a.4.4,0,0,1-.15,0,.38.38,0,0,1-.41-.35.36.36,0,0,1,.22-.31.39.39,0,0,1,.18,0,.38.38,0,0,1,.41.34A.35.35,0,0,1,289.46,124.65Zm1.06,1.53a.61.61,0,0,1,.62.61.63.63,0,0,1-.61.62.61.61,0,0,1-.62-.61.61.61,0,0,1,.41-.58A.45.45,0,0,1,290.52,126.18Zm-.65-16.57a7.37,7.37,0,0,1,4.78-3.54,3.52,3.52,0,0,0-1.39.88,6.73,6.73,0,0,1,3.68-.23A16.93,16.93,0,0,0,289.87,109.61Zm20.5-2.15c-1.05-.81-1.93-1.47-2.05-1.52a13.82,13.82,0,0,1-1.21-.72l.44.72-2.54-1,1.79,0-2.49-1.38a8.18,8.18,0,0,0-1.56-.57c.63-.08,1.27-.16,1.91-.22a34.62,34.62,0,0,1,5,2.57l1.7-.91-1,1.18.93,1.23,0,0h0l-1-.25.65.53.13.11.33.27Zm28.8,19.93a.56.56,0,0,1-.38-.14.61.61,0,0,1,.39-1.09.65.65,0,0,1,.2,0,.63.63,0,0,1,.41.58A.61.61,0,0,1,339.17,127.39Zm-6.44-20.68a6.73,6.73,0,0,1,3.68.23,3.52,3.52,0,0,0-1.39-.88,7.41,7.41,0,0,1,4.79,3.53A17,17,0,0,0,332.73,106.71Zm8.08,17.61a.37.37,0,0,1-.41.34.4.4,0,0,1-.15,0,.35.35,0,0,1-.25-.32.38.38,0,0,1,.41-.35.41.41,0,0,1,.19.05A.34.34,0,0,1,340.81,124.32Zm-15.46-20.8-2.48,1.39h1.79l-2.54,1,.43-.73a13.42,13.42,0,0,1-1.2.72c-.13,0-1,.71-2,1.51h-1l.31-.26.12-.09.65-.54-1,.25h0v0l.94-1.23-1-1.18,1.69.91a31.81,31.81,0,0,1,5.38-2.72c.68.06,1.37.14,2,.23A9.25,9.25,0,0,0,325.35,103.52Z"/><path class="cls-1" d="M332.21,136.93c0-.12.07-.28.13-.46a5.69,5.69,0,0,0-2.81,1.86A13.44,13.44,0,0,0,332.21,136.93Z"/><path class="cls-1" d="M333.88,135a3.6,3.6,0,0,1,2.12.32c.49.21,1.28,0,2.28-.63.22-.13.44-.28.68-.44l-.38-.45-.32-.38a4.12,4.12,0,0,1-3.13.81s2.26-.75,2.29-1.78a14.5,14.5,0,0,1-1.12-1.65c-.16-.3-.32-.61-.46-.93l-.07-.18a4.68,4.68,0,0,0-.19-.45,6.56,6.56,0,0,0-2-2.59,2.58,2.58,0,0,0-.31-.22l-.09-.05a10.06,10.06,0,0,1-1.14.22,17.84,17.84,0,0,1-2.49.16c-.61,0-1.28,0-2-.08,0,0,.92,0,2.11-.2a18.1,18.1,0,0,0,2.17-.39c.26-.06.52-.13.76-.21l-.34-.34-.27.14.16-.24-.31-.32-.41-.45-.87-.09h-.18c-.48,0-1.55,0-2.41,0h-1.21l1,.42,1.22.51-1.36-.26h0l-2.58-.48-.36-.07-.74-.14.77-.35-.2-.11-.8-.47-1-.61-.66-.41c-.41,0-.89-.07-1.07.12l-.08.08a8.39,8.39,0,0,0,.75.66,12.64,12.64,0,0,0,1.55,1.07,6.65,6.65,0,0,1-2.09-1,4.81,4.81,0,0,1-.54-.41c-.16.17-.34.38-.54.62a0,0,0,0,1,0,0,6.07,6.07,0,0,0-1.26,2.17l0,.21c.23.62.45,1.23.52,1.5.13.57,1.62,3.49.83,5.28l-.36.85,0,.07h.05l.65-.18s-.23.17-.6.39a6,6,0,0,1-2.84,1,1.31,1.31,0,0,1-1.16-.66,3.64,3.64,0,0,1-.44-3.17l.19.13,1.17.79-.36-2.51-.53.79-.36-2.19-.44-2.72-.13-.74,0-.21,0,.22-.35,2.22-.18,1.07-.38,2.36-.53-.8-.36,2.5,1.2-.82.16-.11a3.65,3.65,0,0,1-.43,3.17,1.34,1.34,0,0,1-1.23.66h0a6,6,0,0,1-2.72-1c-.32-.18-.54-.34-.62-.38l0,0h0l.68.17-.39-.91c-.79-1.79.69-4.71.82-5.29.07-.27.29-.88.52-1.5l0-.21a6.07,6.07,0,0,0-1.26-2.17c-.2-.24-.39-.45-.55-.63a5,5,0,0,1-.55.42,6.64,6.64,0,0,1-2.08,1,13.46,13.46,0,0,0,1.55-1.07c.27-.22.52-.45.75-.67l-.08-.07c-.19-.19-.66-.18-1.07-.12L307,123l-.95.57-.82.47-.25.14.78.35-.13,0-1,.19-2.58.49-1.37.26,1.22-.52,1-.42h-1.19c-.85,0-1.92,0-2.41,0h-.19l-.88.09c-.17.2-.43.48-.71.77l.16.25-.27-.14-.12.12,0,0c-.06.07-.13.13-.19.19l.35.1.11,0a16.58,16.58,0,0,0,2.5.47c1.18.16,2.09.2,2.09.2-.72,0-1.38.08-2,.08a19.53,19.53,0,0,1-2.16-.11l-.22,0a9.94,9.94,0,0,1-1.29-.24l-.08.06a6.21,6.21,0,0,0-2.27,2.8,3.07,3.07,0,0,0-.2.45,1.42,1.42,0,0,1-.08.18,7.79,7.79,0,0,1-.6,1.19,13.28,13.28,0,0,1-1,1.4c0,1,2.3,1.77,2.3,1.77a3.91,3.91,0,0,1-3-.71l-.14-.08-.71.82A10.7,10.7,0,0,0,292,135a2.28,2.28,0,0,0,1.75.33,3.55,3.55,0,0,1,2.13-.32,2.3,2.3,0,0,0-.5-1.77c.11,0,.84.36,1.76.78a36.67,36.67,0,0,1,4,2h-.8a15.27,15.27,0,0,1,1.1,2.25c0,.07.05.14.07.21h0a4.85,4.85,0,0,1,.23.93,1.5,1.5,0,0,1,0,.2l-.16-.14-.51-.41-.26-.22-.16.37a6.91,6.91,0,0,0-.29.84s0,.06,0,.08a4.45,4.45,0,0,0-.2,1.32,1.37,1.37,0,0,0,.44.52.52.52,0,0,0,.6,0c.48-.26.56-1,.57-1.31v-.15l0,.12c0,.08,0,.19.07.32a5,5,0,0,0,.52,1.23,1,1,0,0,0,.32.33.47.47,0,0,0,.22.09.34.34,0,0,0,.24-.06.81.81,0,0,0,.28-.36,5.73,5.73,0,0,0,.33-1.73,7.68,7.68,0,0,0,.65,2.23,1.85,1.85,0,0,0,.25.37h0l0,0a1.18,1.18,0,0,0,.32.27h.44l0-1.64v-1.28a1.09,1.09,0,0,0,0,.12c0,.19.08.59.18,1,.16.64.4,1.35.77,1.52l.1,0a2.54,2.54,0,0,1,.39.21c.47.26,1,.62,1.3.82l0,0,.22.15v0l-.27-1.94,0-.41-.05-.49-.09-1.08,0-.28-.05-.1-.71-1.43.75.32,1.68-2.64-1.26,3.25.16.75v0l.13.64.07.32-.35.12s.29,2.7,1.73,2.93a1,1,0,0,0,.3,0c1.46-.11.39-1.3.07-1.62l-.09-.09.05-.82,0-.55.08-1.3v0l.12-1.8.22,1.75.24,2,.74,1.33.38.69,1.84.64s.18-.65.29-1.33a3.55,3.55,0,0,0,.06-1.31c-.05-.21-.15-.53-.27-.88s-.23-.67-.34-1-.24-.65-.28-.78l.52.87.4.67.49.83.46-.81.4-.69.49-.84c0,.13-.16.42-.3.77s-.23.62-.34.93-.23.71-.29.92a3.88,3.88,0,0,0,.07,1.32c.11.68.29,1.32.29,1.32l1.83-.64.4-.73.72-1.3.23-1.85v-.13l.14-1.07.08-.67,0,.37.1,1.46v.08l.1,1.5,0,.27.05.82-.11.11c-.34.35-1.33,1.49.1,1.59a1,1,0,0,0,.3,0c1.44-.23,1.73-2.93,1.73-2.93l-.36-.11.07-.33.13-.62v0l.16-.76-1.26-3.24,1.68,2.63.75-.32-.71,1.45,0,.08,0,.26v0l-.09,1.09,0,.46,0,.44-.26,2s.82-.57,1.52-1a2.93,2.93,0,0,1,.38-.21l.15-.08c.36-.16.61-.85.78-1.48s.21-1.14.22-1.17v1.33l0,1.58h.36a1.23,1.23,0,0,0,.33-.28,0,0,0,0,1,0,0,.35.35,0,0,1,.05-.08,2.49,2.49,0,0,0,.2-.32,7.81,7.81,0,0,0,.64-2.21,5.87,5.87,0,0,0,.34,1.73.93.93,0,0,0,.21.31h0a.34.34,0,0,0,.3.11.51.51,0,0,0,.25-.11,1.09,1.09,0,0,0,.29-.31,4.86,4.86,0,0,0,.48-1.13c0-.17.08-.32.1-.42l0-.13v.16c0,.33.1,1,.57,1.3a.54.54,0,0,0,.61,0,1.42,1.42,0,0,0,.43-.52,3.82,3.82,0,0,0-.15-1.11,1.6,1.6,0,0,0-.05-.21s0-.05,0-.08v0h0v0c-.08-.27-.18-.54-.28-.79l-.15-.37-.27.22-.53.45-.14.11a.88.88,0,0,1,0-.16,4.85,4.85,0,0,1,.23-1l.07-.21a14.66,14.66,0,0,1,1.09-2.25h-.79a38,38,0,0,1,4-2l1.76-.78A2.29,2.29,0,0,0,333.88,135Zm-32.22-1.92h0l-.42-.6.57.27.42-.53.55,1.73.39,1.25Zm6.1-4.27-.38.6a4.41,4.41,0,0,0-.61,1.38,17.64,17.64,0,0,0,.46,3.4,5.38,5.38,0,0,1-.2,1.87l-.29,2.15-.23-2,.33-1.57s-.34-3.18-.74-3.7-1.9-.83-2-.12a14.25,14.25,0,0,0,.24,2.67l-1.54-2.73-2.63,1L298.3,131h-.56l.33-.27,0,0,.29.05,1.86.31s3.42-2.2,5.7-2.33l1-.52.56-.31.5-.27.22.53S308,128.44,307.76,128.81Zm20.31,4.24h0l-1.51,2.14.4-1.27.53-1.71.42.53.57-.28Zm3.35-2.05h0l-1.87.75-2.63-1-1.53,2.72a14.33,14.33,0,0,0,.23-2.66c-.1-.71-1.62-.4-2,.12a16.71,16.71,0,0,0-.73,3.71l.34,1.56-.23,2-.3-2.14a5.25,5.25,0,0,1-.19-1.87,18.7,18.7,0,0,0,.45-3.4,3.88,3.88,0,0,0-.57-1.29A5.36,5.36,0,0,0,322,129c-.27-.43-.51-.76-.51-.76l.21-.53.61.33.49.26.93.51c2.29.13,5.71,2.32,5.71,2.32l1.85-.32.29,0h0l.09.07.26.23Z"/><path class="cls-1" d="M332.58,124.81l-1-.12.72.5Z"/><path class="cls-1" d="M306.23,122.51c.21,0,.85-.1,1.32-.17,1.06-1,1.42-3.15,1.35-4.15a2.67,2.67,0,0,1,0-.49C308.13,118.94,305.94,122.51,306.23,122.51Z"/><path class="cls-1" d="M322.14,122.35a12.85,12.85,0,0,0,1.32.17c.29,0-1.9-3.56-2.68-4.8a2.69,2.69,0,0,1,0,.49C320.72,119.2,321.09,121.4,322.14,122.35Z"/><path class="cls-1" d="M334.62,124.62a1.2,1.2,0,0,0-1.05.13,6.22,6.22,0,0,1-1,.62l.49.34A2.93,2.93,0,0,0,334.62,124.62Z"/><path class="cls-1" d="M36.92,307.08c8.52,6.05,18.36,7.26,29.2,3.33,34.93-12.64,52.83-50.81,62.29-84.34A118.14,118.14,0,0,0,132.64,205a56.67,56.67,0,0,0,7.81-21.9c1-7.52.42-14.05-1.74-19.5-3.53-8.82-11.6-12.77-23.73-11.29-11.73,1.44-23.29,7.21-35.08,16.68-16.47,12.58-32.74,31.91-42.5,49.69-8.85,16.1-15,39.46-14.66,58C23,289.92,27.74,300.57,36.92,307.08ZM56.51,218.7c11.11-19.4,26-38.3,45.46-50.57q16.2-8.87,26-2.41c7,4.61,8.84,13.67,5.26,26.95,0,0,0-.08.05-.08s-.07.31-.2.79c-.49-11.35-2.31-19.23-5.41-23.54-4-5.64-10.43-5.64-19,.17q-2.94,1.91-4.88,7.54c1-1.88,2.93-2.91,5.75-3,3.19-.12,5.21,1.74,6,5.5a103.39,103.39,0,0,1-.14,37.73c-5.74,3-10.92,3.63-15.6,1.7s-6.64-5.53-5.88-10.79c2.53,2.13,5.15,2.56,7.81,1.26,2.34-1.13,4.25-3.3,5.74-6.41a16.23,16.23,0,0,0,1.8-8.8c-.35-3.1-1.8-5.15-4.24-6.06q-7-2.67-13.12,3.6A27.87,27.87,0,0,0,84.6,207c-1.2,6.26-.43,11.28,2.3,15,3.21,4.35,8.52,5.84,15.86,4.44a42.71,42.71,0,0,0,11.79-4.15,166,166,0,0,1-9.28,29.22c-7.7,20-20.57,46.06-42.13,52.55-7,2.09-13,0-16.87-5.51-3.5-4.92-5.16-12.48-5.36-22C40.53,257.92,47.38,234.65,56.51,218.7Z"/><path class="cls-1" d="M126.58,250.34l0,0a1.08,1.08,0,0,0,.08-.19Z"/><path class="cls-1" d="M136,244.83c-2.09,1.16-3.84,1.63-5.22,1.22a10.49,10.49,0,0,0,7.4,3c-4.93,11.7-7.65,18.66-8.29,20.7l-.08.1c-6.36,18.89-4.39,27.16,6.26,25.28,5.11-.89,10.92-4.57,17.58-10.75l1.23-1.17a28.51,28.51,0,0,1,.58-6.92c-2.81,2.92-5.38,4.85-7.74,5.74s-3.81.17-4.15-2.31c-.37-2.64.53-6.73,2.69-12.21q4.88-11.87,10-23.65l-5.41-6.92,7.77,1.51q3.09-7,6.28-14,2.66-5.87,5.38-11.69,3.74-8,7.58-16c.89-1.78,1.73-3.46,2.52-5.06,6.38-12.92,10-21,16.15-35.65a46.17,46.17,0,0,0-8.86,1.41c-5.42,1.47-9.39,4-11.38,7.87v-.09q-1.49,2.87-2.82,5.49c-4.25,8.29-7.46,14.73-9.59,19.25l-.53,1.11c-11.49,25.39-17.69,41.19-19.76,45.47A18.87,18.87,0,0,1,136,244.83Z"/><path class="cls-1" d="M209.19,168.84l.14-.44a11.48,11.48,0,0,0-3.91-.78Z"/><path class="cls-1" d="M174.23,238l.06.22,0-.28Z"/><path class="cls-1" d="M196.19,189.36a11,11,0,0,0,.21,1.51,4.51,4.51,0,0,0,2.64,3.55c4.5,1.73,7.79-.88,10.11-7.74a17.51,17.51,0,0,0,.9-8.14c-.36-2.36-1.19-3.85-2.59-4.43-3.92-1.66-7.31.8-10,7.42a16.85,16.85,0,0,0-1.28,7.19C196.16,188.94,196.17,189.15,196.19,189.36Z"/><path class="cls-1" d="M168,259.43q-1.74,3.79-3.66,8.46a56.46,56.46,0,0,0-2.66,7.85c-1,3.89-1.13,7.09-.48,9.58a7.92,7.92,0,0,0,2.57,4.24,9.41,9.41,0,0,0,6.17,2,16.27,16.27,0,0,0,6.54-1.16A37.24,37.24,0,0,0,187,284.19a40.54,40.54,0,0,0,4.77-4.77,53.7,53.7,0,0,0,6.16-9.06,75,75,0,0,0,3.48-7.25c-.13-1.95-.2-2.93-.34-4.88a82.19,82.19,0,0,1-4.89,9,55.56,55.56,0,0,1-6.56,8.61q-.9,1-1.83,1.83a20.72,20.72,0,0,1-3.23,2.56c-2.32,1.43-4.11,1.49-5.28.21-1.4-1.54-1.29-4.66.29-9.3q.57-1.69,1.41-3.66c.6-1.41,1.25-2.92,1.95-4.55,1.58-3.7,3.42-8,5.48-12.81,3.9-9.22,8.59-20.52,13.82-34,.11-.28.22-.56.31-.83a15.48,15.48,0,0,0,.46-1.54,10.12,10.12,0,0,0,.31-2.39,0,0,0,0,1,0,0,5.73,5.73,0,0,0-.06-.84,5.3,5.3,0,0,0-1.5-3.2c-1.72-1.74-4.75-2.45-9.4-2.19-3,.17-4.58.24-7.8.34-.85,1.78-1.27,2.67-2.13,4.45,3.87-.09,5.75,1,6,3.27.18,1.83-.77,5.25-3,10.17-1,2.39-2,4.54-2.83,6.43-2,4.35-3.38,7.38-4.2,9.11a11.14,11.14,0,0,1-2.95,3.72c-.26.22-.53.44-.81.64a14.23,14.23,0,0,1-1.34.9,13.49,13.49,0,0,1-3.79,1.61.29.29,0,0,1,0-.09l-.07.11a9.44,9.44,0,0,1-4,.1,8.73,8.73,0,0,0,2.55,2.23,9.46,9.46,0,0,0,2.59,1.06,14.67,14.67,0,0,0,2.4.39c-.45.8-.92,1.66-1.41,2.59Q169.93,255.28,168,259.43Z"/><path class="cls-1" d="M209.64,237.88l-.19-.6a6.49,6.49,0,0,1-.4.79Z"/><path class="cls-1" d="M196,296.82c-.31-.38-.61-.77-.91-1.16l-.06,1.23Z"/><path class="cls-1" d="M246.36,225.26l10.12,4.05a103.56,103.56,0,0,0,3.4-17.06c.7-6.44.29-10.9-1.31-13.23-1.31-1.91-3.71-2.62-7.13-2-3,.52-4.43.78-7.36,1.32L242.66,203c2.57-.47,4.28,0,5.12,1.27.71,1.11,1,3.09.91,5.92A79.42,79.42,0,0,1,246.36,225.26Z"/><path class="cls-1" d="M234.41,272.38c1.57-1.88,3.1-3.88,4.6-6h0c.61-.86,1.21-1.75,1.8-2.66s1.08-1.67,1.62-2.53A119.32,119.32,0,0,0,252.6,240.8a16.17,16.17,0,0,1-1.4-1.56l-6.4-8.17c-.43,1.5-.9,3.05-1.4,4.63a12,12,0,0,1-4.65,5.67,4,4,0,0,1-3.4.62,7.15,7.15,0,0,0,4.76,2.93q-2.34,5.87-5,11c-.54,1.06-1.09,2.09-1.64,3.1q-2,3.63-4.21,6.87c-.36.54-.73,1.07-1.1,1.59-4.9,6.86-9.89,11.39-15.09,13.52a166.59,166.59,0,0,0,8.8-26.65q1.44-6.12,2.32-12.07c.31-2.15.58-4.28.79-6.39q.41-4,.56-7.95a64.72,64.72,0,0,0-1.24-17.38c-1.07-4.43-2.7-7.15-4.83-8a2.19,2.19,0,0,0-.33-.12,5.24,5.24,0,0,0-3.14-.11,9,9,0,0,0-3.05,1.47c-2.09,1.5-3.3,3.09-3.56,4.75a8.86,8.86,0,0,0-.13,1.64v0a6.19,6.19,0,0,1,.05.63v.07a3.8,3.8,0,0,0,.66,1.79c.12-1.6.71-2.17,1.72-1.73s1.94,1.63,2.57,3.47c1,3,1.54,7.19,1.8,12.27a43.22,43.22,0,0,1-.31,10.44,11.18,11.18,0,0,1-.72,2.3,12.9,12.9,0,0,1-5,6,6.62,6.62,0,0,1-3.76,1.2,3.15,3.15,0,0,1-1.07-.24,11.41,11.41,0,0,0,1.14,1.16,8.54,8.54,0,0,0,7.8,1.93q-1,5.85-2.48,12.3l-.42,1.85a.36.36,0,0,0,0,.1c-1.47,6.38-2.68,11-3.45,13.66a42.61,42.61,0,0,1-1.79,5.25,12,12,0,0,1-.78,1.53,7.57,7.57,0,0,1-3.7,3.31c-.06,1.15-.08,1.73-.14,2.88a46.24,46.24,0,0,0,9.34-1.63C219.9,286.14,227.53,280.57,234.41,272.38Z"/><path class="cls-1" d="M317.45,213.56a36.33,36.33,0,0,1-6.16,9.66l8.57,1.58c4.8-7.55,6.73-14.46,6.15-20.35s-3.5-9.91-9.12-12.08c-2.73-1.06-6.33-1.42-10.81-1.2a37.83,37.83,0,0,0-14.67,3.73c-12,5.76-20,16.51-26,31.58-.33.84-.68,1.76-1,2.77a17.09,17.09,0,0,1-2.86,4.05,9.21,9.21,0,0,1-2.22,1.69,4.11,4.11,0,0,1-3.42.55,7.9,7.9,0,0,0,4,2.84,8,8,0,0,0,1.72.32c-2.89,12.6-2.4,22.85,1.57,30.79a17.83,17.83,0,0,0,6.9,7.61,14.66,14.66,0,0,0,9.4,1.79c7.62-.95,16.71-5.76,27.77-14.19,1.83-1.4,3.57-2.85,5.2-4.36h0a61,61,0,0,1,3-9.21l.66-1.67A97.86,97.86,0,0,1,299.92,263c-5.77,3.89-10.69,6.44-14.93,7.6-4.64,1.26-8.2.82-10.9-1.48-4.49-3.85-5.07-12.1-1.89-24.8,6.15,2.1,13.1,1.88,21.24-.39s15.63-6.12,21.32-12.31l-5.06-6.67a51.85,51.85,0,0,1-11,8.41c-9.79,5.73-18,8.12-25.36,6.85,4.12-13.7,9.69-24.73,17.36-32.84,5.81-6.13,11.91-9.62,17.88-10.62,5-.84,8.31-.16,10.28,2.21.85,1.08,1.2,2.94,1,5.52A27,27,0,0,1,317.45,213.56Z"/><path class="cls-1" d="M356.71,198.14c1.6-4.15,1.43-7.07-.48-8.78-1.74-1.55-4.78-1.91-9.26-1.15-2.91.5-4.38.74-7.37,1.16-.79,1.87-1.18,2.81-2,4.67,3.56-.48,5.36.4,5.57,2.65.17,1.82-.73,5.34-2.8,10.49s-3.62,9.26-4.81,12.2c-.7,1.73-1.25,3.08-1.65,4a13.88,13.88,0,0,1-4.57,5.74,9.17,9.17,0,0,1-7.32,2.14c.11.14.22.28.35.42h0a8,8,0,0,0,5.33,2.79,9.36,9.36,0,0,0,1.32.08q-2.55,5.21-6,13.74-1,2.37-2,5a53.29,53.29,0,0,0-3,10q-1.46,8.26,2.47,11.63a8,8,0,0,0,5.85,1.85,12.9,12.9,0,0,0,5.91-1.69,41.37,41.37,0,0,0,10.84-8.55,29.52,29.52,0,0,1,.15-6l-.59.67c-3.69,4.1-6.36,5.3-7.87,3.63s-1.05-6.14,1.55-13.12C340.48,240.58,347.42,222.84,356.71,198.14Z"/><path class="cls-1" d="M362,155.54c-4.07-1.22-7.47,1.63-10.15,8.55a18.3,18.3,0,0,0-1.26,7.34c.11,3.07,1.05,4.88,2.85,5.38,4.48,1.22,7.89-1.77,10.32-8.89a17.39,17.39,0,0,0,.94-8.24C364.36,157.36,363.48,156,362,155.54Z"/><path class="cls-1" d="M354,221a2.28,2.28,0,0,1,.45,0c.08-.22.16-.44.25-.66l-.09.07a5.78,5.78,0,0,1-1,.58A2.41,2.41,0,0,1,354,221Z"/><path class="cls-1" d="M365.46,177.72l-.28.06-.2.53C365.14,178.12,365.3,177.93,365.46,177.72Z"/><path class="cls-1" d="M407.59,195.76c-1-1.85-2.38-2.66-4.09-2.35a6.44,6.44,0,0,0-3.71,2.35,8.55,8.55,0,0,0-1.16,9.8,4.5,4.5,0,0,0,3.29,2.7,5.73,5.73,0,0,0,2.46-.08q1-2.6,2.28-5.14l.34-.69a2.6,2.6,0,0,1-1.36,1,7.66,7.66,0,0,0,2.29-3.65A5.31,5.31,0,0,0,407.59,195.76Z"/><path class="cls-1" d="M355.13,272.58a13.22,13.22,0,0,0,8.79-4.37,17.21,17.21,0,0,0,4.51-11.4c-1,2.09-1.93,3.3-2.82,3.59a1.13,1.13,0,0,1-1.42-.7l-.06,0c-1.26-1.76-.72-6.15,1.61-13.21q1.42-4.2,5.91-16.72a119.4,119.4,0,0,1,16.4-30.52c7.67-10.44,13.84-15.15,18.28-14.18a5.2,5.2,0,0,1,4.06,3.57,11.75,11.75,0,0,1,.07,6,21.19,21.19,0,0,1-.67,2.43c.08-.15.17-.3.26-.45.54-.93,1.09-1.84,1.66-2.73.87-1.38,1.77-2.73,2.71-4,.56-.79,1.14-1.56,1.73-2.31a9.89,9.89,0,0,0-3.5-7.47,11.2,11.2,0,0,0-3.18-1.84l-.54-.19c-2.85-.9-6.37-.26-10.5,1.92-4.84,2.55-9.25,6.65-13.25,12.25q3.19-7.92-.14-10.45-2.46-1.87-7.53-.69c-3.14.73-4.71,1.1-7.87,1.82l-1.88,4.91c3-.68,4.74-.13,5.16,1.61.46,1.95-.43,5.79-2.61,11.42-2.2,5.81-3.3,8.71-5.51,14.5-1.71,4.72-4,8-6.72,10-2,1.41-3.68,1.93-5,1.51a8.68,8.68,0,0,0,6.32,2.7q-2.08,5.44-3.61,9.39-1.11,2.91-1.9,5c-.95,2.52-1.55,4.17-1.78,5a78.86,78.86,0,0,0-2.32,8.71q-1.42,7-.28,10.76A5.46,5.46,0,0,0,355.13,272.58Z"/><path class="cls-1" d="M435.55,242.39l.35-1.08c-.35.3-.68.59-1,.86Z"/><path class="cls-1" d="M457.76,170.36a67.94,67.94,0,0,0-9.79,2,47.33,47.33,0,0,0-15.5,7.45,59.52,59.52,0,0,0-10.33,9.88l-.16.19a72.7,72.7,0,0,0-6.77,9.81c-.32.54-.63,1.09-.93,1.64-.78,1.43-1.52,2.86-2.2,4.29h0q-1.71,3.57-3.05,7.15h0a77.12,77.12,0,0,0-3.8,14,54.24,54.24,0,0,0-.75,13.65h0a33.91,33.91,0,0,0,.9,5.54h0a29.37,29.37,0,0,0,.89,3,15.2,15.2,0,0,0,3.19,5.27,12.87,12.87,0,0,0,3.41,2.59c3.21,1.71,7.24,2.22,12.2,1.64a47.61,47.61,0,0,0,16.58-5.27,63.28,63.28,0,0,0,8.14-5.11,9.59,9.59,0,0,0,2.21,6,8.26,8.26,0,0,0,6.08,2.55,14.18,14.18,0,0,0,1.84,0c4.58-.31,9.95-3.26,16-8.7,6.52-5.85,13.32-14.26,20.05-25.14L493.42,220c-9.9,14.85-17.49,22.69-22.48,24.28-2.14.69-3.38-.17-3.65-2.43-.28-2.44.61-6.22,2.68-11.18C479.44,208,489.2,185,498.43,162c-8.75,2.9-14.85,6.47-18.06,11.42v-.09l-.08,0a15.2,15.2,0,0,0-3.5-1.71,34,34,0,0,0-12.41-1.81c-1.4,0-2.83.13-4.31.28C459.3,170.16,458.53,170.26,457.76,170.36Zm7.83,5.46a9.4,9.4,0,0,1,4.06,2.61q5.1,5.59-.65,19.7-.33.72-1.05,2.34v0c-1.77,3.94-4,6.84-6.72,8.6a10.26,10.26,0,0,1-1.39.81c-2.37,1.16-4.42,1.38-6.1.67a12,12,0,0,0,7.18,3.59c.24,0,.48.06.73.08-.26.56-.56,1.23-.9,2-.16.34-.32.71-.5,1.09-.54,1.16-.94,2-1.16,2.36a94,94,0,0,1-12.67,19.5,66.51,66.51,0,0,1-5.07,5.3c-5.24,4.91-10.15,7.67-14.79,8.19-3.35.38-5.88-.15-7.67-1.64-2.17-1.88-3.35-4.91-3.59-9.12a39.6,39.6,0,0,1,.35-7.55,84.65,84.65,0,0,1,6.74-22.91c.38-.87.77-1.75,1.19-2.63a88.33,88.33,0,0,1,10.91-17.91c.44-.56.89-1.1,1.35-1.63q1.74-2,3.6-3.86a38.42,38.42,0,0,1,9.76-7.13,28.15,28.15,0,0,1,9.62-2.94l.93-.09A14.89,14.89,0,0,1,465.59,175.82Z"/><path class="cls-1" d="M516.6,157.89a1.84,1.84,0,0,0,1.58-.2c6.94-3.56,13.28-9.88,19.1-18.63a91.25,91.25,0,0,0,12.52-27.95c.71-2.07,1.1-5.38,1.14-9.9.06-5.92-1.25-8.79-3.86-8.57-2.91.24-5.17,1.89-6.79,4.8a20.2,20.2,0,0,0-2.33,9.4,83.36,83.36,0,0,1-1.88,15.47c-1.66,7.71-4.18,14-7.59,18.67a134.82,134.82,0,0,1-8.87,10.81c-2,2.33-3.11,4-3.32,4.87C516.16,157.28,516.26,157.72,516.6,157.89Z"/><path class="cls-1" d="M563.15,173.39c2.72.46,4.45,1.1,5.18,1.84a10.26,10.26,0,0,1-3.1,2.14,5.49,5.49,0,0,1-3,.8c.87,1,2.58,1.55,5,1.7a12,12,0,0,0,5.13-.55c1.61,3.5,1.44,8.7-.47,15.59A45.19,45.19,0,0,1,562.39,213c-4.61,5.23-9.17,8.43-13.65,9.55-4.68,1.16-8.31-.34-10.86-4.65-2.31-3.9-2-10,.91-18.2,2.45-6.91,5.19-12,8.22-15.11,2.41-2.52,4.24-3.46,5.45-2.83s1.5,3,.68,6.93a59.3,59.3,0,0,1-6.44,16.73c.49,1,.73,1.44,1.21,2.4a39.46,39.46,0,0,0,12-18.74,17.3,17.3,0,0,0,.61-8.83,6.2,6.2,0,0,0-4.74-4.85c-2.52-.63-5.45,0-8.65,2.06a32.53,32.53,0,0,0-8.67,8.7,46.94,46.94,0,0,0-6.46,13,40.22,40.22,0,0,0-2,14.95q.75,12.43,8.19,15c3.91,1.34,9,.53,15.18-2.05A77,77,0,0,0,571,216.22a123.45,123.45,0,0,0,19.41-19.14c9-11.08,15.13-19.56,18.17-26.66-1-.74-1.57-1.11-2.61-1.83-1.29,2.85-4.82,7.19-10.36,13.53-5.29,6.08-9.26,10.48-12,12.78,3.19-7.91,3.23-14.61.24-20.08-2.35-4.3-5.58-6.83-9.63-7.4-5.11-.72-8.11-1.16-9.09-1.58-3-1.37-4.17-4.35-3.54-9a20.88,20.88,0,0,1,6.32-12.41,19.26,19.26,0,0,1,8.74-5.11c3-.74,5.29-.52,6.88.56,2.11,1.44,2.78,4.42,1.92,8.84a15.64,15.64,0,0,1-3.83,7.87,12.66,12.66,0,0,1-5.6,3.51c2.67-1.86,4-4,3.94-6.52a5,5,0,0,0-2.68-4.7c-1.67-.83-3.64-.48-5.88,1a11.68,11.68,0,0,0-4.8,7.59c-.7,3.3.33,5.45,3.17,6.4a12.66,12.66,0,0,0,8.37-.36,22.27,22.27,0,0,0,8.43-5.9,21.67,21.67,0,0,0,5.8-10.21,11.64,11.64,0,0,0-2.83-11c-3.07-3.32-7.45-4.48-13-3.08-5.81,1.45-11,4.88-15.51,10.08a35.05,35.05,0,0,0-8.17,15.74c-.73,3.48-.35,6.47,1.22,8.93C555.75,170.91,558.8,172.61,563.15,173.39Z"/><polygon class="cls-1" points="235.53 349.71 248.12 357.72 250.87 353.38 232.98 341.99 212.34 374.42 230.22 385.81 232.98 381.48 220.41 373.47 226.72 363.54 237.91 370.66 240.66 366.33 229.48 359.21 235.53 349.71"/><path class="cls-1" d="M266.77,359.73a16.85,16.85,0,0,0-6.92-1.25,10.6,10.6,0,0,0-5.7,1.89,10.22,10.22,0,0,0-3.63,4.81,9.23,9.23,0,0,0-.52,6,10,10,0,0,0,2.6,4.4,43,43,0,0,0,5,4.08,43.75,43.75,0,0,1,3.83,3,7.74,7.74,0,0,1,2,2.76,4.48,4.48,0,0,1-.08,3.35,5.09,5.09,0,0,1-3.16,3.13,7.5,7.5,0,0,1-5.31-.36,6.89,6.89,0,0,1-4-3.25,6.07,6.07,0,0,1-.36-4.52l-6.29-2.42a9.71,9.71,0,0,0-.44,6,11.42,11.42,0,0,0,3.16,5.33,17,17,0,0,0,6,3.77,15.22,15.22,0,0,0,7.19,1.09,11.33,11.33,0,0,0,5.77-2.25,10.33,10.33,0,0,0,3.46-4.59,9.26,9.26,0,0,0,.52-6,10.32,10.32,0,0,0-2.65-4.48,48.07,48.07,0,0,0-5-4.2,42.33,42.33,0,0,1-3.71-3,7.52,7.52,0,0,1-1.91-2.66,4,4,0,0,1,0-3.09,4.81,4.81,0,0,1,3-3.09,6.81,6.81,0,0,1,4.62.3,7.28,7.28,0,0,1,3.94,3.12,5,5,0,0,1,.57,4.06l6.49,2.51a10.26,10.26,0,0,0-.93-8.56A14.37,14.37,0,0,0,266.77,359.73Z"/><polygon class="cls-1" points="280.85 370.79 290.98 372.43 285.68 405.26 291.89 406.27 297.2 373.44 307.29 375.07 308.12 370 281.66 365.72 280.85 370.79"/><path class="cls-1" d="M336.81,401.3l2.18-2.51q3.78-4.35,6.18-7.58a30.77,30.77,0,0,0,3.91-7.14,15.65,15.65,0,0,0,1-7.84,11.82,11.82,0,0,0-4.51-8.33q-3.79-2.85-9.77-2.07a13.07,13.07,0,0,0-8.69,4.51q-3.15,3.78-2.5,10l6-.78a8.58,8.58,0,0,1,1.18-5.75,6.28,6.28,0,0,1,4.74-2.71q3.35-.43,5.14,1.22a7.86,7.86,0,0,1,2.24,4.95,12,12,0,0,1-1.2,6.62,34.42,34.42,0,0,1-4.27,6.76q-2.66,3.33-7.33,8.56l-3.5,3.91.6,4.55,26.61-3.47-.67-5.21Z"/><path class="cls-1" d="M377.26,360.21q-4.86-4-12.29-1.3t-8.65,8.84q-1.21,6.17,2,15.16T366.5,396q4.88,4,12.31,1.36t8.63-8.9q1.2-6.21-2.08-15.3T377.26,360.21Zm3.91,28.15a8.15,8.15,0,0,1-9.92,3.58,9.75,9.75,0,0,1-3.93-4,46.07,46.07,0,0,1-3.16-7.14,42.48,42.48,0,0,1-2-7.31,10.2,10.2,0,0,1,.5-5.56,8,8,0,0,1,9.87-3.55,10.15,10.15,0,0,1,3.92,4,41.43,41.43,0,0,1,3.11,6.92,45.49,45.49,0,0,1,2.12,7.52A9.67,9.67,0,0,1,381.17,388.36Z"/><polygon class="cls-1" points="381.06 352.96 383.91 357.94 388.37 355.39 405.54 385.34 411.06 382.18 391.03 347.25 381.06 352.96"/><polygon class="cls-1" points="416.37 328.36 395.68 345.12 399.06 349.29 414.94 336.42 424.75 373.18 429.69 369.18 419.32 332.01 416.37 328.36"/><path class="cls-1" d="M491.88,278.6c-14.67,7.2-34.45,13.31-56.8,18.47q-5.18,1.2-10.54,2.32c-5.64,1.2-11.41,2.33-17.27,3.42h0c-14,2.58-28.58,4.87-43.16,6.88l-1.52.21c-7.61,1-15.22,2-22.77,2.9l-1.48.17c-7.41.87-14.75,1.68-21.95,2.42l-1.47.15c-7.86.8-15.55,1.52-23,2.17l-1.53.14c-15.21,1.32-29.26,2.34-41.38,3.11-6.22.39-11.92.72-17,1-3.81.19-7.28.36-10.36.49-6.56.28-11.34.42-13.91.44-22.4.19-101.24,6.22-113.12,7.76S66.5,342.41,66.5,342.41a4.67,4.67,0,0,1,.45-3.64c-5.52,1.18-26.06,9.87-26.7,10.14,25.89-22,116.27-30.73,174.66-32.09q4-.1,7.77-.15l2.25,0q8.25-.12,16.28-.44c8-.3,15.82-.73,23.64-1.26l1.66-.12c8.32-.58,16.61-1.29,25-2.1l1.54-.15c8.9-.87,17.89-1.85,27.11-2.91,5.47-.64,11-1.31,16.66-2,8-1,16.13-2,24.58-3.08l.41-.05c7.95-1,16.15-2.06,24.66-3.13l1.66-.21,11.77-1.46q6.3-.78,12.49-1.84c5.49-.93,10.9-2,16.21-3.23q5.19-1.18,10.24-2.51A400.66,400.66,0,0,0,532,254.28c-4.4,2-35.44,11.79-84.41,24.45q-4.47,1.15-9.13,2.33-7.12,1.81-14.69,3.69-11.53,2.83-24,5.8c-5.3,1.25-10.91,2.41-16.77,3.48l-1.61.29c-4.67.84-9.5,1.62-14.45,2.36-10.68,1.59-22,2.95-33.56,4.14h-.1q-8.13.82-16.45,1.55h-.07c-10.92.95-22,1.77-33.05,2.49l-13.08.82-1.65.09c-13.36.78-26.52,1.44-39.08,2.06l-14.24.69-8.94.43c-27.76,1.36-50.8,2.67-64,4.81-41.45,6.74-72.89,7.92-103.59,25.1C18,350.69-1.9,375.52.14,408.32c1.35,21.92,10.81,49.12,46,57,87.89,19.68,66.12-61.49,66.12-61.49-.44,14.11-2.45,19.21-7.75,27.22C98.06,440.84,88,436.71,88,436.71c3.48-17.28-8.14-23.64-8.14-23.64,1.7,14.38-13.22,18.26-13.22,18.26,6.08-24.38-3.57-27.05-3.57-27.05-17.6,24.21-39.74,1.19-41.46-12.45s18.62-25.65,18.62-25.65c13.58,24.52,36.47,7.59,36.47,7.59-19.35-12.25.26-29.61.26-29.61C81.38,371.11,112.53,364,112.53,364c-5.77-22.38,36.08-28.09,61.38-30.15,10.29-.82,31.84-.17,62.87-.91q6.16-.15,12.83-.38,11-.37,23.21-1.05c13-.72,27-1.73,42.09-3.16l1.47-.13q11.91-1.14,24.63-2.65l1.47-.18q20.24-2.43,42.39-5.94,11.17-1.8,22.84-3.9,6.26-1.14,12.64-2.38,3.56-.68,7.15-1.4C561.41,285,622.85,189.78,623.8,188.3,570,242.31,562.87,243.76,491.88,278.6ZM46.12,430.33a29.14,29.14,0,0,1-19.83-3.53C33.85,445,64.54,446,64.54,446c-20.77,3-31.14-5.21-31.66-5.63C44.52,456.4,86.65,455.5,86.65,455.5c-59,18.66-70.14-41.37-70.43-43C20.6,422.66,46.12,430.33,46.12,430.33Z"/></g></g></svg>